<svg width="512" height="512" viewBox="0 0 512 512" fill="none" xmlns="http://www.w3.org/2000/svg">
<path d="M288.368 425.907C250.007 425.907 213.942 410.968 186.817 383.843C159.692 356.718 144.753 320.654 144.753 282.292C144.753 243.932 159.692 207.866 186.817 180.741C242.812 124.746 333.924 124.746 389.918 180.741C427.283 218.106 441.098 272.799 425.975 323.477C423.658 331.238 415.489 335.652 407.729 333.336C399.968 331.019 395.554 322.85 397.87 315.09C409.909 274.75 398.914 231.218 369.179 201.48C324.619 156.921 252.117 156.921 207.558 201.48C185.972 223.066 174.085 251.765 174.085 282.291C174.085 312.817 185.973 341.516 207.558 363.102C229.144 384.688 257.843 396.575 288.369 396.575C318.895 396.575 347.594 384.687 369.18 363.102C374.907 357.375 384.193 357.375 389.921 363.102C395.649 368.829 395.648 378.115 389.921 383.843C362.793 410.967 326.729 425.907 288.368 425.907Z" fill="#EA12BA"/>
<path d="M288.368 343.899C271.912 343.899 256.442 337.492 244.805 325.855C220.785 301.835 220.785 262.751 244.805 238.731C256.44 227.096 271.911 220.687 288.368 220.687C304.824 220.687 320.294 227.094 331.929 238.731C355.949 262.751 355.949 301.834 331.929 325.855C320.294 337.49 304.823 343.899 288.368 343.899Z" fill="#00FFFF"/>
<path d="M288.368 358.564C267.995 358.564 248.841 350.63 234.435 336.226C204.698 306.488 204.698 258.1 234.435 228.362C248.842 213.956 267.995 206.024 288.368 206.024C308.742 206.024 327.895 213.958 342.299 228.363C372.036 258.1 372.036 306.487 342.299 336.225C327.895 350.63 308.742 358.564 288.368 358.564ZM288.368 235.351C275.829 235.351 264.041 240.233 255.175 249.1C236.874 267.402 236.874 297.183 255.175 315.485C264.04 324.35 275.828 329.234 288.367 329.234C300.906 329.234 312.694 324.352 321.559 315.485C339.861 297.183 339.861 267.402 321.559 249.1C312.694 240.235 300.906 235.351 288.368 235.351Z" fill="#EA12BA"/>
<path d="M173.338 143.772H173.337C168.317 143.772 163.61 141.538 160.42 137.646C157.241 133.764 155.984 128.71 156.971 123.784L158.627 115.536L143.575 100.245L135.129 101.94C134.044 102.157 132.934 102.268 131.831 102.268C126.251 102.268 121.064 99.492 117.956 94.842C114.853 90.198 114.276 84.342 116.416 79.178L128.502 50.013C130.659 44.797 135.267 41.05 140.825 39.998L158.093 36.732C167.202 23.019 171.633 18.019 174.231 15.428C184.487 5.191 201.174 0 223.828 0C232.491 0 239.732 0.777 243.277 1.239C250.806 2.226 256.724 8.171 257.674 15.699C259.538 30.474 261.84 66.817 242.985 85.175C239.091 88.966 232.262 94.099 222.18 100.804L218.911 118.087C217.86 123.645 214.113 128.253 208.887 130.415L179.736 142.496C177.691 143.343 175.539 143.772 173.338 143.772ZM151.835 70.324C154.791 71.069 157.532 72.615 159.688 74.807L184.23 99.736C186.289 101.827 187.728 104.382 188.462 107.13L191.36 105.929L194.356 90.088C195.198 85.634 197.861 81.663 201.661 79.192C216.382 69.627 221.154 65.495 222.522 64.162C228.065 58.765 230.023 44.018 229.413 29.461C227.671 29.38 225.792 29.33 223.826 29.33C210.047 29.33 199.25 31.895 194.947 36.189C193.601 37.534 189.421 42.272 179.72 57.234C177.25 61.043 173.276 63.712 168.815 64.556L152.981 67.551L151.835 70.324Z" fill="#EA12BA"/>
<path d="M287.939 512C225.764 512 167.312 487.788 123.349 443.824C84.2661 404.741 60.3191 352.916 55.9181 297.895C51.5681 243.502 66.4531 189.154 97.8311 144.865C102.514 138.257 111.666 136.695 118.274 141.376C124.884 146.059 126.445 155.211 121.763 161.819C64.3501 242.857 73.7391 352.735 144.088 423.084C182.512 461.508 233.6 482.67 287.939 482.67C342.278 482.67 393.366 461.508 431.788 423.084C437.515 417.357 446.801 417.357 452.528 423.084C458.255 428.811 458.255 438.097 452.528 443.825C408.566 487.788 350.114 512 287.939 512Z" fill="#EA12BA"/>
</svg>
